<svg xmlns="http://www.w3.org/2000/svg" viewBox="0 0 64 64">
  <title>BTC DCA Execution</title>
  <rect width="64" height="64" rx="12" fill="#f4f4f2"/>
  <rect x="6" y="6" width="52" height="52" rx="9" fill="#fbfbfa" stroke="#1a1814" stroke-width="4"/>
  <path d="M19 45 45 19" fill="none" stroke="#d64933" stroke-width="6" stroke-linecap="round"/>
  <path d="M22 18h16c6 0 10 3 10 8 0 3.4-1.9 5.8-5.2 7 4 .9 6.4 3.8 6.4 7.8 0 5.6-4.5 9.2-11.4 9.2H22V18z" fill="#1a1814"/>
  <path d="M29 11v44M36 11v44" fill="none" stroke="#1a1814" stroke-width="4" stroke-linecap="round"/>
  <path d="M29 24h8.5c2.3 0 3.7 1.1 3.7 2.8s-1.4 2.8-3.7 2.8H29V24zm0 10.8h9.9c2.7 0 4.3 1.3 4.3 3.3 0 2.1-1.6 3.3-4.3 3.3H29V34.8z" fill="#fbfbfa"/>
</svg>
